HIERARCHY
ROOT Hips
{
	OFFSET -3.958830 18.904000 13.208200
	CHANNELS 6 Xposition Yposition Zposition Zrotation Yrotation Xrotation 
	JOINT LHipJoint
	{
		OFFSET 0.000000 0.000000 0.000000
		CHANNELS 3 Zrotation Yrotation Xrotation
		JOINT LeftUpLeg
		{
			OFFSET 1.800000 -1.400000 0.085000
			CHANNELS 3 Zrotation Yrotation Xrotation
			JOINT LeftLeg
			{
				OFFSET 2.215000 -6.000000 0.000000
				CHANNELS 3 Zrotation Yrotation Xrotation
				JOINT LeftFoot
				{
					OFFSET 2.500000 -6.900000 0.000000
					CHANNELS 3 Zrotation Yrotation Xrotation
					JOINT LeftToeBase
					{
						OFFSET 0.200000 -0.500000 1.950000
						CHANNELS 3 Zrotation Yrotation Xrotation
						End Site
						{
							OFFSET 0.000000 0.000000 0.000000
						}
					}
				}
			}
		}
	}
	JOINT RHipJoint
	{
		OFFSET 0.000000 0.000000 0.000000
		CHANNELS 3 Zrotation Yrotation Xrotation
		JOINT RightUpLeg
		{
			OFFSET -1.800000 -1.400000 0.085000
			CHANNELS 3 Zrotation Yrotation Xrotation
			JOINT RightLeg
			{
				OFFSET -2.215000 -6.000000 0.000000
				CHANNELS 3 Zrotation Yrotation Xrotation
				JOINT RightFoot
				{
					OFFSET -2.500000 -6.900000 0.000000
					CHANNELS 3 Zrotation Yrotation Xrotation
					JOINT RightToeBase
					{
						OFFSET -0.200000 -0.500000 1.950000
						CHANNELS 3 Zrotation Yrotation Xrotation
						End Site
						{
							OFFSET 0.000000 0.000000 0.000000
						}
					}
				}
			}
		}
	}
	JOINT LowerBack
	{
		OFFSET 0.000000 0.000000 0.000000
		CHANNELS 3 Zrotation Yrotation Xrotation
		JOINT Spine
		{
			OFFSET -0.087000 1.940000 -0.288900
			CHANNELS 3 Zrotation Yrotation Xrotation
			JOINT Spine1
			{
				OFFSET 0.000000 1.950000 0.060000
				CHANNELS 3 Zrotation Yrotation Xrotation
				JOINT Neck
				{
					OFFSET 0.000000 0.000000 0.000000
					CHANNELS 3 Zrotation Yrotation Xrotation
					JOINT Neck1
					{
						OFFSET 0.000000 1.600000 0.340000
						CHANNELS 3 Zrotation Yrotation Xrotation
						JOINT Head
						{
							OFFSET 0.000000 1.667000 -0.240000
							CHANNELS 3 Zrotation Yrotation Xrotation
							End Site
							{
								OFFSET 0.000000 0.000000 0.000000
							}
						}
					}
				}
				JOINT LeftShoulder
				{
					OFFSET 0.000000 0.000000 0.000000
					CHANNELS 3 Zrotation Yrotation Xrotation
					JOINT LeftArm
					{
						OFFSET 2.700000 1.550000 -0.730000
						CHANNELS 3 Zrotation Yrotation Xrotation
						JOINT LeftForeArm
						{
							OFFSET 5.450000 0.000000 0.000000
							CHANNELS 3 Zrotation Yrotation Xrotation
							JOINT LeftHand
							{
								OFFSET 3.450000 0.000000 0.000000
								CHANNELS 3 Zrotation Yrotation Xrotation
								JOINT LeftHandIndex1
								{
									OFFSET 0.750000 0.000000 0.000000
									CHANNELS 3 Zrotation Yrotation Xrotation
									End Site
									{
										OFFSET 0.000000 0.000000 0.000000
									}
								}
							}
						}
					}
				}
				JOINT RightShoulder
				{
					OFFSET 0.000000 0.000000 0.000000
					CHANNELS 3 Zrotation Yrotation Xrotation
					JOINT RightArm
					{
						OFFSET -2.700000 1.550000 -0.730000
						CHANNELS 3 Zrotation Yrotation Xrotation
						JOINT RightForeArm
						{
							OFFSET -5.450000 0.000000 0.000000
							CHANNELS 3 Zrotation Yrotation Xrotation
							JOINT RightHand
							{
								OFFSET -3.450000 0.000000 0.000000
								CHANNELS 3 Zrotation Yrotation Xrotation
								JOINT RightHandIndex1
								{
									OFFSET -0.750000 0.000000 0.000000
									CHANNELS 3 Zrotation Yrotation Xrotation
									End Site
									{
										OFFSET 0.000000 0.000000 0.000000
									}
								}
							}
						}
					}
				}
			}
		}
	}
}
MOTION
Frames: 11
Frame Time: 0.016667
1.444810 17.129280 0.753770 2.904188 -69.279157 1.964801 -15.450448 11.993826 4.752388 -5.166221 -7.410993 -42.179126 -0.103295 5.724737 30.704943 -0.649869 4.787121 3.081994 0.481240 0.139310 0.179100 18.093323 -10.942946 2.400531 -1.915441 0.984900 -4.356495 6.516338 -7.473964 25.390059 -0.494544 -5.359871 2.901198 0.223860 0.623730 0.302350 -3.875275 -0.697385 -7.472116 7.042839 6.463498 12.924449 1.663551 6.256697 13.018461 0.376854 -6.362133 -9.461511 -13.163725 7.982548 35.034338 -4.412060 3.887440 -4.093050 -14.651917 -2.511063 4.177098 -30.791329 10.066930 -8.607565 4.843650 -38.531152 -2.937221 -3.723487 2.924795 0.535310 0.434550 -0.167520 0.474470 13.945128 10.723905 6.014135 32.977239 15.897609 -0.011760 -142.930706 61.020764 -134.701586 1.727202 -1.949144 -0.370210 0.347490 -0.145710 -0.119750 
1.461800 17.011260 0.754880 1.620036 -67.535826 4.296222 -15.424600 11.747034 4.742801 -5.141868 -7.555535 -42.804869 -1.897294 5.004456 24.002975 -0.833892 3.828478 3.470968 0.481770 0.127990 0.159140 18.170264 -10.930089 2.435157 -0.830904 -0.098133 -2.579613 5.739781 -6.737095 20.796682 -0.416715 -5.107644 3.001522 0.258230 0.699800 0.325690 -4.082492 -0.454900 -7.359693 7.986359 6.415589 10.683692 1.482372 6.037525 12.921866 0.082372 -6.250318 -8.710268 -12.451676 7.544787 32.938242 -4.191060 3.621570 -1.975610 -14.466288 -1.514491 3.451699 -30.347713 8.349437 -8.158483 9.336623 -40.638489 -4.274498 -3.805240 2.977511 0.460180 0.514160 -0.245320 0.492900 14.264013 9.289209 5.695883 32.906961 14.957640 0.548898 -146.258351 62.877398 -140.414080 1.668814 -2.099190 -0.387450 0.332420 -0.139890 -0.109970 
1.488300 16.908220 0.752490 1.237795 -66.263513 4.843059 -15.411491 11.547405 4.766770 -5.326547 -7.757749 -43.431642 -2.362781 4.586571 21.079546 -0.876248 3.400788 3.642688 0.492840 0.141440 0.189510 18.215045 -10.904659 2.507537 -0.601296 -0.803416 -0.711240 5.823261 -6.407992 16.969280 -0.412162 -5.015524 3.041948 0.270080 0.695600 0.327850 -4.189246 -0.227174 -7.391553 8.498006 6.658278 10.342710 0.878710 6.408837 12.348757 0.214978 -5.623942 -8.167684 -10.924031 6.633070 31.932812 -4.906530 3.808030 -1.409790 -15.167313 -1.069759 2.604150 -29.469790 6.453703 -7.925782 16.053501 -43.273193 -6.530556 -3.818166 2.973768 0.418220 0.533110 -0.257170 0.493540 14.598507 8.304055 5.727895 33.939886 13.639290 0.144888 -147.064329 65.352069 -143.504397 1.682964 -2.160485 -0.378820 0.310010 -0.167450 -0.109720 
1.512760 16.825530 0.755170 0.591113 -65.075272 5.461654 -15.409498 11.329350 4.913131 -5.382264 -8.349515 -45.210914 -1.245333 4.501316 23.051108 -0.846282 3.598249 3.584043 0.451180 0.094470 0.151180 18.252282 -10.824029 2.588603 -0.477695 -1.229116 0.780785 6.414181 -6.275823 13.853835 -0.404214 -5.021288 3.068348 0.253590 0.731350 0.313510 -4.300124 -0.070767 -7.528175 9.484364 6.645770 10.868048 -0.105012 6.756228 10.988580 0.366761 -5.446767 -7.879808 -10.319146 6.158281 30.930092 -5.023790 3.756940 -0.172170 -16.515323 -0.829799 1.882429 -29.375233 4.926282 -7.856112 24.606654 -45.823720 -9.861310 -3.833262 2.904975 0.400480 0.559890 -0.295760 0.498110 15.480939 7.875059 6.024286 34.970846 11.615066 -0.979296 -148.541345 68.329937 -147.678688 1.679653 -2.189958 -0.406750 0.310430 -0.155920 -0.106390 
1.526840 16.774350 0.756150 -1.092133 -64.129417 6.311294 -15.376245 11.181613 5.023706 -4.220792 -8.588060 -46.658414 -0.112146 4.821168 27.935064 -0.701993 4.278471 3.307998 0.448060 0.102820 0.137240 18.300581 -10.797880 2.688529 -0.113568 -1.566306 2.151260 7.245247 -6.404250 12.452827 -0.463833 -5.094233 3.055995 0.229940 0.702580 0.315770 -4.486766 0.113369 -7.686870 11.419877 6.335696 12.166487 -1.321346 7.029072 9.710736 0.585782 -5.541675 -7.593494 -10.493025 5.696329 31.420966 -4.940070 3.253610 -0.740530 -17.500942 -0.168629 1.201658 -31.357407 2.944482 -8.122931 33.605952 -48.919252 -14.234255 -3.786110 2.810629 0.408560 0.530340 -0.266480 0.499100 15.754656 7.216591 6.063776 37.008321 10.161274 -2.641328 -150.308163 73.655767 -153.089252 1.685267 -2.188794 -0.375440 0.297500 -0.158620 -0.093160 
1.524750 16.742270 0.773580 -3.176254 -63.382444 8.066447 -15.369457 10.978340 5.189528 -2.153233 -9.002917 -48.475165 0.862927 5.425206 34.520998 -0.537405 5.479819 2.870940 0.423080 0.052640 0.107440 18.351266 -10.712226 2.697347 0.165913 -1.706474 2.659506 8.343974 -6.635259 11.963605 -0.478307 -5.184508 3.038236 0.207850 0.730340 0.307750 -4.672473 0.228186 -7.810872 13.167893 5.536175 12.332882 -2.111247 6.564320 8.241512 0.553382 -6.074178 -7.083248 -11.377277 6.341448 31.734415 -4.141410 3.054620 0.176510 -17.579144 1.238206 0.953889 -35.296267 1.500965 -8.005983 41.426832 -50.205625 -18.111144 -3.780439 2.709325 0.420750 0.534210 -0.297240 0.499220 15.682698 6.116644 5.177883 39.119513 9.838079 -5.433835 -177.721979 81.438530 174.823708 1.483817 -2.043874 -0.397840 0.302410 -0.133980 -0.098460 
1.520310 16.746190 0.793180 -4.434438 -63.129013 8.744060 -15.392022 10.910267 5.295441 0.146160 -9.096120 -49.218993 1.230807 6.453546 41.403933 -0.283950 6.856602 2.374556 0.396100 0.020040 0.106770 18.352371 -10.644409 2.662372 0.019980 -1.780274 3.023483 8.919529 -6.856287 12.183716 -0.496966 -5.227813 3.039660 0.170300 0.709280 0.290040 -4.679509 0.217899 -7.909863 13.638599 5.260216 12.515895 -2.412302 6.562211 7.772254 0.866952 -5.817522 -7.139345 -11.160762 6.284363 33.281138 -4.320840 3.270020 0.701420 -18.101983 2.021582 0.642060 -39.592183 -0.223854 -8.185820 48.679944 -51.647804 -22.370702 -3.737126 2.561221 0.434130 0.515520 -0.285850 0.485060 15.548429 4.981375 5.333527 41.488784 10.614533 -1.597111 -131.087913 89.036248 -141.791948 1.931126 -1.920611 -0.395590 0.299100 -0.131300 -0.106300 
1.528770 16.777900 0.817360 -5.239095 -62.974286 8.765049 -15.386472 10.965377 5.271739 2.062036 -8.811809 -48.395864 1.387040 7.425718 46.701846 -0.084425 7.931725 1.951536 0.428360 0.038410 0.168520 18.347918 -10.670798 2.645064 -0.298774 -1.750637 2.959711 9.209273 -7.070237 12.795941 -0.544037 -5.226422 3.018588 0.145740 0.603940 0.311640 -4.646148 0.251665 -7.988211 13.830925 5.357631 13.140889 -2.791861 6.994517 7.189337 1.520162 -5.030146 -6.898215 -9.974583 5.581701 35.431568 -5.220590 3.719480 -0.781960 -19.307829 2.064706 0.496330 -43.405484 -2.160279 -8.387616 54.600084 -53.593980 -26.885785 -3.652454 2.440835 0.490650 0.457020 -0.218000 0.449060 15.363923 4.386854 4.841805 44.496738 9.630067 -5.370203 33.688156 80.439016 20.861402 1.737907 -2.072439 -0.350770 0.243600 -0.141790 -0.143590 
1.546290 16.829790 0.851020 -6.436065 -62.110241 9.314395 -15.337940 11.112705 5.219659 3.011962 -8.771884 -47.027546 2.925146 7.328140 50.702154 0.106073 8.565261 1.738521 0.435880 0.054850 0.183320 18.367742 -10.735279 2.622027 -0.132916 -1.640468 1.967665 9.352818 -7.406661 14.838860 -0.570755 -5.187674 3.046304 0.115020 0.559580 0.292490 -4.712637 0.188917 -8.018386 14.919146 4.642941 13.520782 -3.500977 6.599655 6.612193 1.785042 -5.155381 -7.270076 -10.664656 5.947985 37.768379 -4.442110 3.802550 -1.307650 -19.632625 1.648407 1.002207 -48.403854 -3.651781 -8.892927 58.776639 -54.835479 -30.863922 -3.558474 2.286499 0.528530 0.402790 -0.162950 0.454650 15.096165 4.683310 4.629833 47.238862 9.510130 -7.630208 22.600267 69.242750 10.450119 1.721794 -1.909893 -0.325870 0.252410 -0.166010 -0.138200 
1.546140 16.891450 0.888970 -7.130580 -63.061690 9.591429 -15.293586 11.401501 5.023948 4.366485 -7.963209 -44.514826 3.009271 8.005278 52.952876 0.232297 9.061346 1.568329 0.420200 0.034860 0.216310 18.351931 -10.888813 2.567770 -0.454380 -1.120508 0.099764 8.942351 -7.788145 18.236500 -0.573050 -5.187861 3.036460 0.077480 0.522000 0.282310 -4.694384 0.129728 -7.949801 14.889849 4.408591 13.464225 -3.880399 6.431248 6.298727 2.211502 -4.886893 -7.556030 -10.494658 6.574230 40.351169 -4.984000 5.198750 -1.254850 -20.092765 1.323209 1.558456 -52.379812 -3.926981 -9.777952 63.441088 -56.505745 -35.615183 -3.507716 2.099217 0.565050 0.373490 -0.121570 0.432430 14.744718 4.730410 4.211022 49.889911 10.324672 -7.954161 16.205524 57.280107 5.352349 1.776790 -1.710930 -0.321580 0.254570 -0.169400 -0.156480 
1.533290 16.943520 0.921000 -8.923845 -64.085543 10.966455 -15.199136 11.808951 4.674686 5.975036 -6.607851 -41.093263 3.480508 8.199206 53.089759 0.245019 9.136442 1.529712 0.387300 -0.003820 0.189400 18.361990 -11.081898 2.577133 -0.442057 -0.271877 -2.496836 8.659207 -8.348168 22.834990 -0.582576 -5.340758 2.976466 0.041430 0.519620 0.277490 -4.735733 0.040289 -7.823814 15.430498 3.971968 13.501853 -4.584470 6.092464 5.569988 2.343437 -5.120765 -7.833578 -11.226357 7.567351 42.116142 -4.486830 5.977820 -0.582410 -20.562128 1.438111 2.001343 -54.713622 -3.269214 -10.684970 68.348180 -59.550138 -41.580352 -3.459408 1.865222 0.594580 0.362130 -0.114110 0.419400 14.880287 4.611366 3.923077 51.602788 10.131838 -7.725383 13.175585 47.890095 3.187181 1.831053 -1.568010 -0.326680 0.253510 -0.142580 -0.164240 
